<?xml version="1.0" encoding="UTF-8"?>
<svg width="800px" height="400px" viewBox="0 0 800 400" version="1.1" xmlns="http://www.w3.org/2000/svg" xmlns:xlink="http://www.w3.org/1999/xlink">
    <rect width="800" height="400" fill="#1E1E1E"/>
    
    <!-- Title -->
    <text font-family="Arial, sans-serif" font-size="28" font-weight="bold" fill="#FFFFFF" text-anchor="middle" x="400" y="60">
        Portfolio Website Design
    </text>
    
    <!-- Browser Window -->
    <g transform="translate(150, 100)">
        <!-- Browser frame -->
        <rect x="0" y="0" width="500" height="240" rx="6" fill="#333333" stroke="#569CD6" stroke-width="2"/>
        
        <!-- Browser toolbar -->
        <rect x="0" y="0" width="500" height="30" rx="6" fill="#444444" stroke="#569CD6" stroke-width="2"/>
        
        <!-- Browser controls -->
        <circle cx="15" cy="15" r="5" fill="#FF5F56"/>
        <circle cx="35" cy="15" r="5" fill="#FFBD2E"/>
        <circle cx="55" cy="15" r="5" fill="#27C93F"/>
        
        <!-- Address bar -->
        <rect x="80" y="8" width="320" height="15" rx="7.5" fill="#222222"/>
        <text font-family="Arial, sans-serif" font-size="10" fill="#AAAAAA" x="90" y="19">
            https://www.portfolio-example.com
        </text>
        
        <!-- Navigation buttons -->
        <rect x="410" y="8" width="80" height="15" rx="3" fill="#666666"/>
        <text font-family="Arial, sans-serif" font-size="10" fill="#FFFFFF" text-anchor="middle" x="450" y="19">
            Menu
        </text>
        
        <!-- Website Content -->
        <rect x="0" y="30" width="500" height="210" fill="#222222"/>
        
        <!-- Hero section -->
        <rect x="0" y="30" width="500" height="80" fill="#111111"/>
        <text font-family="Arial, sans-serif" font-size="24" font-weight="bold" fill="#569CD6" x="30" y="65">
            AI Data Eng
        </text>
        <text font-family="Arial, sans-serif" font-size="16" fill="#FFFFFF" x="30" y="85">
            i made it easy!
        </text>
        <rect x="30" y="95" width="100" height="10" rx="5" fill="#569CD6" opacity="0.6"/>
        
        <!-- Projects section -->
        <text font-family="Arial, sans-serif" font-size="18" font-weight="bold" fill="#FFFFFF" x="30" y="130">
            Projects
        </text>
        <rect x="30" y="140" width="120" height="5" rx="2.5" fill="#569CD6" opacity="0.3"/>
        
        <!-- Project cards -->
        <rect x="30" y="155" width="140" height="70" rx="4" fill="#333333" stroke="#569CD6" stroke-width="1"/>
        <rect x="180" y="155" width="140" height="70" rx="4" fill="#333333" stroke="#569CD6" stroke-width="1"/>
        <rect x="330" y="155" width="140" height="70" rx="4" fill="#333333" stroke="#569CD6" stroke-width="1"/>
        
        <!-- Project card content -->
        <rect x="40" y="165" width="50" height="40" rx="3" fill="#569CD6" opacity="0.5"/>
        <rect x="100" y="165" width="60" height="8" rx="4" fill="#569CD6" opacity="0.8"/>
        <rect x="100" y="178" width="40" height="6" rx="3" fill="#FFFFFF" opacity="0.5"/>
        <rect x="100" y="188" width="60" height="6" rx="3" fill="#FFFFFF" opacity="0.3"/>
        <rect x="100" y="198" width="50" height="6" rx="3" fill="#FFFFFF" opacity="0.3"/>
    </g>
    
    <!-- Design elements -->
    <g transform="translate(300, 350)">
        <text font-family="Arial, sans-serif" font-size="14" fill="#569CD6" text-anchor="middle" x="0" y="0">
            HTML
        </text>
        <text font-family="Arial, sans-serif" font-size="14" fill="#569CD6" text-anchor="middle" x="60" y="0">
            CSS
        </text>
        <text font-family="Arial, sans-serif" font-size="14" fill="#569CD6" text-anchor="middle" x="110" y="0">
            Flask
        </text>
        <text font-family="Arial, sans-serif" font-size="14" fill="#569CD6" text-anchor="middle" x="170" y="0">
            JavaScript
        </text>
    </g>
    
    <!-- Annotations -->
    <text font-family="Arial, sans-serif" font-size="12" fill="#AAAAAA" text-anchor="middle" x="400" y="380">
        Responsive portfolio website with modern design principles
    </text>
</svg>